<mxfile host="app.diagrams.net" modified="2022-10-25T04:57:01.787Z" agent="5.0 (Windows NT 10.0; Win64; x64) AppleWebKit/537.36 (KHTML, like Gecko) Chrome/106.0.0.0 Safari/537.36" etag="tz7chbfoACk0UZJeylp9" version="20.5.1" type="github">
  <diagram id="ysQy04UoIwiOK3s3A5kT" name="第 1 页">
    <mxGraphModel dx="782" dy="450" grid="1" gridSize="10" guides="1" tooltips="1" connect="1" arrows="1" fold="1" page="1" pageScale="1" pageWidth="827" pageHeight="1169" math="0" shadow="0">
      <root>
        <mxCell id="0" />
        <mxCell id="1" parent="0" />
        <mxCell id="WvA0Iw82kgdB8J_UP9wY-1" value="Student" style="swimlane;childLayout=stackLayout;horizontal=1;startSize=30;horizontalStack=0;rounded=1;fontSize=20;fontStyle=0;strokeWidth=2;resizeParent=0;resizeLast=1;shadow=0;dashed=0;align=center;" vertex="1" parent="1">
          <mxGeometry x="50" y="55" width="240" height="195" as="geometry" />
        </mxCell>
        <mxCell id="WvA0Iw82kgdB8J_UP9wY-2" value="first name(string)&#xa;last name(string)&#xa;email(string)&#xa;dateRegistered(dateTime)&#xa;" style="align=left;strokeColor=none;fillColor=none;spacingLeft=4;fontSize=20;verticalAlign=top;resizable=0;rotatable=0;part=1;" vertex="1" parent="WvA0Iw82kgdB8J_UP9wY-1">
          <mxGeometry y="30" width="240" height="165" as="geometry" />
        </mxCell>
        <mxCell id="WvA0Iw82kgdB8J_UP9wY-3" value="Course" style="swimlane;childLayout=stackLayout;horizontal=1;startSize=30;horizontalStack=0;rounded=1;fontSize=20;fontStyle=0;strokeWidth=2;resizeParent=0;resizeLast=1;shadow=0;dashed=0;align=center;" vertex="1" parent="1">
          <mxGeometry x="380" y="77.5" width="180" height="150" as="geometry" />
        </mxCell>
        <mxCell id="WvA0Iw82kgdB8J_UP9wY-4" value="title(string)&#xa;price(float)&#xa;instructor(string)&#xa;tags(string)" style="align=left;strokeColor=none;fillColor=none;spacingLeft=4;fontSize=20;verticalAlign=top;resizable=0;rotatable=0;part=1;" vertex="1" parent="WvA0Iw82kgdB8J_UP9wY-3">
          <mxGeometry y="30" width="180" height="120" as="geometry" />
        </mxCell>
        <mxCell id="WvA0Iw82kgdB8J_UP9wY-9" value="Enrollment" style="swimlane;childLayout=stackLayout;horizontal=1;startSize=30;horizontalStack=0;rounded=1;fontSize=20;fontStyle=0;strokeWidth=2;resizeParent=0;resizeLast=1;shadow=0;dashed=0;align=center;" vertex="1" parent="1">
          <mxGeometry x="310" y="330" width="180" height="150" as="geometry" />
        </mxCell>
        <mxCell id="WvA0Iw82kgdB8J_UP9wY-10" value="date(dateTime)&lt;br&gt;price(float)" style="align=left;strokeColor=none;fillColor=none;spacingLeft=4;fontSize=20;verticalAlign=top;resizable=0;rotatable=0;part=1;html=1;" vertex="1" parent="WvA0Iw82kgdB8J_UP9wY-9">
          <mxGeometry y="30" width="180" height="120" as="geometry" />
        </mxCell>
        <mxCell id="WvA0Iw82kgdB8J_UP9wY-11" value="" style="edgeStyle=entityRelationEdgeStyle;fontSize=12;html=1;endArrow=ERoneToMany;rounded=0;entryX=0;entryY=0.5;entryDx=0;entryDy=0;exitX=1;exitY=0.394;exitDx=0;exitDy=0;exitPerimeter=0;" edge="1" parent="1" source="WvA0Iw82kgdB8J_UP9wY-2" target="WvA0Iw82kgdB8J_UP9wY-10">
          <mxGeometry width="100" height="100" relative="1" as="geometry">
            <mxPoint x="300" y="150" as="sourcePoint" />
            <mxPoint x="460" y="190" as="targetPoint" />
          </mxGeometry>
        </mxCell>
        <mxCell id="WvA0Iw82kgdB8J_UP9wY-12" value="" style="edgeStyle=entityRelationEdgeStyle;fontSize=12;html=1;endArrow=ERoneToMany;rounded=0;" edge="1" parent="1" source="WvA0Iw82kgdB8J_UP9wY-4" target="WvA0Iw82kgdB8J_UP9wY-10">
          <mxGeometry width="100" height="100" relative="1" as="geometry">
            <mxPoint x="540" y="240" as="sourcePoint" />
            <mxPoint x="510" y="370" as="targetPoint" />
          </mxGeometry>
        </mxCell>
      </root>
    </mxGraphModel>
  </diagram>
</mxfile>
